<?xml version="1.0" encoding="iso-8859-1"?>
<!-- Generator: Adobe Illustrator 19.1.1, SVG Export Plug-In . SVG Version: 6.00 Build 0)  -->
<svg version="1.1" id="Layer_1" xmlns="http://www.w3.org/2000/svg" xmlns:xlink="http://www.w3.org/1999/xlink" x="0px" y="0px"
	 viewBox="0 0 48 48" enable-background="new 0 0 48 48" xml:space="preserve">
<path fill="none" stroke="#B0BEC5" stroke-width="2" stroke-linejoin="round" stroke-miterlimit="10" d="M24,27v17 M24,44
	l-5.307-14.16 M24,44l5-16"/>
<polygon fill="#FFA000" points="26,30 25,30 24,31 23,30 22,30 23,26.25 25,26.25 "/>
<polygon fill="#558B2F" points="21.617,31.768 20.69,32.145 20.141,33.448 18.838,32.899 17.912,33.276 17.424,29.426 
	19.276,28.671 "/>
<path fill="#7CB342" d="M21.952,15.409c1.954,4.561,1.324,13.175-3.153,15.166s-11.106-3.396-13.06-7.957s0.091-9.872,4.569-11.862
	S19.998,10.848,21.952,15.409z"/>
<polygon fill="#DD2C00" points="28.61,26.391 30.463,27.145 29.975,30.996 29.049,30.619 27.746,31.168 27.196,29.864 26.27,29.487 
	"/>
<path fill="#FF3D00" d="M25.106,11.666c-2.062,4.778-1.397,13.803,3.328,15.888s11.722-3.558,13.784-8.336
	c2.062-4.778-0.097-10.342-4.822-12.427S27.168,6.888,25.106,11.666z"/>
<path fill="#558B2F" d="M20.606,29.187c0.427-0.49,0.794-1.058,1.102-1.691C17.292,25.618,14,18.733,14,14
	c0-1.399,0.292-2.729,0.811-3.938c-0.15-0.017-0.3-0.029-0.451-0.038c-0.567-0.015-1.137,0.011-1.708,0.108
	C12.236,11.347,12,12.645,12,14C12,19.335,15.465,26.776,20.606,29.187z"/>
<path fill="#F1F8E9" d="M8.896,23.62c-1.862-4.263,0.087-9.227,4.354-11.087c0.494-0.215,0.996-0.374,1.503-0.49
	c-1.21-0.131-2.468,0.036-3.663,0.557c-3.657,1.595-5.328,5.849-3.732,9.504C7.879,23.297,8.688,24.274,9.664,25
	C9.371,24.571,9.111,24.113,8.896,23.62z"/>
<path fill="#FFC107" d="M34,14c0,5.523-4.477,14-10,14s-10-8.477-10-14S18.477,4,24,4S34,8.477,34,14z"/>
<path fill="#DD2C00" d="M36,14c0-3.06-1.161-5.846-3.052-7.968c-0.795,0.062-1.572,0.234-2.32,0.494C32.692,8.358,34,11.023,34,14
	c0,4.331-2.759,10.462-6.611,12.914c0.326,0.249,0.668,0.474,1.045,0.64c0.341,0.151,0.697,0.25,1.059,0.323
	C33.455,24.697,36,18.572,36,14z"/>
<path fill="#FFFDE7" d="M17.006,16.334c0-5.17,4.191-9.361,9.361-9.361c0.598,0,1.18,0.062,1.747,0.168
	c-1.173-0.67-2.528-1.06-3.976-1.06c-4.432,0-8.024,3.592-8.024,8.024c0,1.448,0.39,2.803,1.06,3.976
	C17.068,17.514,17.006,16.932,17.006,16.334z"/>
</svg>
